<?xml version="1.0" encoding="utf-8"?>
<!-- Generator: Adobe Illustrator 16.0.0, SVG Export Plug-In . SVG Version: 6.00 Build 0)  -->
<!DOCTYPE svg PUBLIC "-//W3C//DTD SVG 1.1//EN" "http://www.w3.org/Graphics/SVG/1.1/DTD/svg11.dtd">
<svg version="1.1" id="图层_1" xmlns="http://www.w3.org/2000/svg" xmlns:xlink="http://www.w3.org/1999/xlink" x="0px" y="0px"
	 width="46px" height="46px" viewBox="7 7 46 46" enable-background="new 7 7 46 46" xml:space="preserve">
<path fill="none" stroke="#00A0E9" stroke-width="0.7674" stroke-miterlimit="10" d="M30.284,52.982"/>
<path d="M25.227,16.661c0,0,2.424-9.661,4.842-9.661c2.42,0,4.841,9.661,4.841,9.661H25.227z"/>
<path d="M30.069,14.684c-10.581,0-19.159,8.577-19.159,19.157C10.911,44.42,19.489,53,30.069,53c10.578,0,19.158-8.58,19.158-19.159
	C49.227,23.259,40.647,14.684,30.069,14.684z"/>
<g>
	<path fill="#FFFFFF" d="M36.277,36.605c0,0,7.143-4.295,8.551-5.587l-1.133,3.653C43.695,34.672,37.4,36.521,36.277,36.605z"/>
	<path fill="#FFFFFF" d="M23.962,36.605c0,0-7.145-4.295-8.551-5.587l1.133,3.653C16.544,34.672,22.841,36.521,23.962,36.605z"/>
</g>
<path fill="#F4F4F4" d="M49.677,34.793c-1.074,0.582-2.596-2.508-4.758-6.509c-2.169-4.005-3.87-8.783-2.796-9.366
	c1.073-0.58,4.939,2.215,7.104,6.223C51.394,29.142,50.752,34.213,49.677,34.793z"/>
<path fill="#F4F4F4" d="M10.323,34.793c1.076,0.582,2.596-2.508,4.76-6.509c2.168-4.005,3.868-8.783,2.795-9.366
	c-1.075-0.58-4.94,2.215-7.105,6.223C8.605,29.142,9.248,34.213,10.323,34.793z"/>
<path fill="#00B9EF" d="M44.887,37.629c-2.403,2.209-8.129,3.764-14.822,3.764c-6.693,0-12.425-1.555-14.822-3.765
	c0.311,6.979,6.819,12.556,14.821,12.556C38.066,50.184,44.574,44.606,44.887,37.629z"/>
<path fill="none" d="M44.887,37.629c-2.403,2.209-8.129,3.764-14.822,3.764c-6.693,0-12.425-1.555-14.822-3.765
	c0.311,6.979,6.819,12.556,14.821,12.556C38.066,50.184,44.574,44.606,44.887,37.629z"/>
</svg>
